<?xml version="1.0" encoding="UTF-8" standalone="no"?>
<svg
   viewBox="0 0 161.52464 31.831853"
   height="25.465483"
   version="1.1"
   id="svg1"
   sodipodi:docname="logo.svg"
   inkscape:version="1.4 (e7c3feb100, 2024-10-09)"
   width="161.52464"
   xmlns:inkscape="http://www.inkscape.org/namespaces/inkscape"
   xmlns:sodipodi="http://sodipodi.sourceforge.net/DTD/sodipodi-0.dtd"
   xmlns="http://www.w3.org/2000/svg"
   xmlns:svg="http://www.w3.org/2000/svg">
  <defs
     id="defs1">
    <inkscape:path-effect
       effect="fillet_chamfer"
       id="path-effect8"
       is_visible="true"
       lpeversion="1"
       nodesatellites_param="F,0,0,1,0,0,0,1 @ F,0,0,1,0,0,0,1 @ F,0,0,1,0,0.29510133,0,1 @ F,0,0,1,0,0,0,1 @ F,0,0,1,0,0,0,1 @ F,0,0,1,0,1.2980462,0,1 | F,0,0,1,0,0,0,1 @ F,0,0,1,0,0,0,1 @ F,0,0,1,0,0,0,1 @ F,0,0,1,0,0,0,1 @ F,0,0,1,0,0,0,1 @ F,0,0,1,0,0,0,1 @ F,0,0,1,0,0,0,1 @ F,0,0,1,0,0,0,1 @ F,0,0,1,0,0,0,1 @ F,0,0,1,0,0,0,1 @ F,0,0,1,0,0,0,1 @ F,0,0,1,0,0,0,1 @ F,0,0,1,0,0,0,1 | F,0,0,1,0,0,0,1 @ F,0,0,1,0,0,0,1 @ F,0,0,1,0,0,0,1 @ F,0,0,1,0,0,0,1 @ F,0,0,1,0,0,0,1 @ F,0,0,1,0,0,0,1 @ F,0,0,1,0,0,0,1 @ F,0,0,1,0,0,0,1 @ F,0,0,1,0,0,0,1 @ F,0,0,1,0,0,0,1 @ F,0,0,1,0,0,0,1 @ F,0,0,1,0,0,0,1 @ F,0,0,1,0,0,0,1 @ F,0,0,1,0,0,0,1 @ F,0,0,1,0,0,0,1 @ F,0,0,1,0,0,0,1 | F,0,0,1,0,0,0,1 @ F,0,0,1,0,0,0,1 @ F,0,0,1,0,0,0,1 @ F,0,0,1,0,0,0,1 @ F,0,0,1,0,0,0,1 @ F,0,0,1,0,0,0,1 | F,0,0,1,0,0,0,1 @ F,0,0,1,0,0,0,1 @ F,0,0,1,0,0,0,1 @ F,0,0,1,0,0,0,1 @ F,0,0,1,0,0,0,1 @ F,0,0,1,0,0,0,1 @ F,0,0,1,0,0,0,1 @ F,0,0,1,0,0,0,1 @ F,0,0,1,0,0,0,1 @ F,0,0,1,0,0,0,1 @ F,0,0,1,0,0,0,1 @ F,0,0,1,0,0,0,1 @ F,0,0,1,0,0,0,1 @ F,0,0,1,0,0,0,1 @ F,0,0,1,0,0,0,1 @ F,0,0,1,0,0,0,1 @ F,0,0,1,0,0,0,1 | F,0,0,1,0,0,0,1 @ F,0,0,1,0,0,0,1 @ F,0,0,1,0,0,0,1 @ F,0,0,1,0,0,0,1 @ F,0,0,1,0,0,0,1 @ F,0,0,1,0,0,0,1 @ F,0,0,1,0,0,0,1 @ F,0,0,1,0,0,0,1 @ F,0,0,1,0,0,0,1 @ F,0,0,1,0,0,0,1 @ F,0,0,1,0,0,0,1 @ F,0,0,1,0,0,0,1 @ F,0,0,1,0,0,0,1 @ F,0,0,1,0,0,0,1 @ F,0,0,1,0,0,0,1 @ F,0,0,1,0,0,0,1 @ F,0,0,1,0,0,0,1 @ F,0,0,1,0,0,0,1 @ F,0,0,1,0,0,0,1 @ F,0,0,1,0,0,0,1 @ F,0,0,1,0,0,0,1 @ F,0,0,1,0,0,0,1 @ F,0,0,1,0,0,0,1 @ F,0,0,1,0,0,0,1"
       radius="0"
       unit="px"
       method="auto"
       mode="F"
       chamfer_steps="1"
       flexible="false"
       use_knot_distance="true"
       apply_no_radius="true"
       apply_with_radius="true"
       only_selected="false"
       hide_knots="false" />
  </defs>
  <sodipodi:namedview
     id="namedview1"
     pagecolor="#ffffff"
     bordercolor="#666666"
     borderopacity="1.0"
     inkscape:showpageshadow="2"
     inkscape:pageopacity="0.0"
     inkscape:pagecheckerboard="true"
     inkscape:deskcolor="#d1d1d1"
     inkscape:zoom="2.4663885"
     inkscape:cx="72.981204"
     inkscape:cy="-74.197558"
     inkscape:window-width="1920"
     inkscape:window-height="1009"
     inkscape:window-x="0"
     inkscape:window-y="0"
     inkscape:window-maximized="1"
     inkscape:current-layer="g7"
     showguides="true">
    <sodipodi:guide
       position="160.19898,23.375043"
       orientation="0,-1"
       id="guide5"
       inkscape:locked="false" />
    <sodipodi:guide
       position="161.16193,4.305046e-05"
       orientation="0,-1"
       id="guide6"
       inkscape:locked="false" />
    <sodipodi:guide
       position="8.8475303,31.831852"
       orientation="0,-1"
       id="guide7"
       inkscape:locked="false" />
  </sodipodi:namedview>
  <style
     id="style1">
    .text { font-family: 'Roboto', 'Helvetica', 'Arial', sans-serif; font-weight: 700; font-size: 32px; fill: currentColor; }
    .thin { font-weight: 300; }
  </style>
  <g
     id="g7"
     transform="translate(-17.021053)">
    <g
       id="g8">
      <text
         x="101.21637"
         y="31.519312"
         class="text"
         id="text1"
         style="font-weight:700;font-size:32px;font-family:Roboto, Helvetica, Arial, sans-serif;fill:currentColor"><tspan
           id="tspan4"
           style="font-style:normal;font-variant:normal;font-weight:250;font-stretch:normal;font-size:32px;font-family:Roboto, Helvetica, Arial, sans-serif;-inkscape-font-specification:'Roboto, Helvetica, Arial, sans-serif,  weight=250';font-variant-ligatures:normal;font-variant-caps:normal;font-variant-numeric:normal;font-variant-east-asian:normal;letter-spacing:-1.875px;fill:#ffffff;fill-opacity:1">onomo</tspan></text>
    </g>
    <text
       x="15.210639"
       y="31.519312"
       class="text"
       id="text1-9"
       style="font-weight:700;font-size:32px;font-family:Roboto, Helvetica, Arial, sans-serif;fill:currentColor"><tspan
         id="tspan4-8"
         style="font-style:normal;font-variant:normal;font-weight:250;font-stretch:normal;font-size:32px;font-family:Roboto, Helvetica, Arial, sans-serif;-inkscape-font-specification:'Roboto, Helvetica, Arial, sans-serif,  weight=250';font-variant-ligatures:normal;font-variant-caps:normal;font-variant-numeric:normal;font-variant-east-asian:normal;letter-spacing:-1.875px;fill:#ffffff;fill-opacity:1">ucas</tspan></text>
    <g
       id="g1"
       transform="matrix(2.5312931,0,0,2.5312931,-300.67622,-517.69171)">
      <path
         style="font-weight:normal;font-stretch:condensed;font-size:13.7827px;line-height:1.25;font-family:Coolvetica;-inkscape-font-specification:'Coolvetica, Condensed';text-align:end;letter-spacing:-0.529167px;word-spacing:0px;text-anchor:end;fill:#ffffff;stroke:none;stroke-width:0.529167;stroke-linecap:square;stroke-linejoin:round;stroke-dasharray:none;stroke-opacity:1;paint-order:markers stroke fill"
         d="m 131.77375,173.82849 v -1.13018 h -1.96526 a 0.29510133,0.29510133 45 0 1 -0.2951,-0.2951 v -7.72643 h -1.24044 v 7.85366 a 1.2980462,1.2980462 45 0 0 1.29805,1.29805 z m -0.12947,-6.61569 v 4.6172 c 0,1.3507 0.41349,2.08119 1.54367,2.08119 0.73048,0 1.15774,-0.28944 1.46096,-1.03371 h 0.0551 l 0.0276,0.95101 h 1.1164 v -6.61569 h -1.18531 v 4.57585 c -0.1654,0.7994 -0.37214,1.07505 -0.96479,1.07505 -0.59266,0 -0.85453,-0.27565 -0.85453,-1.01992 v -4.63098 z m 7.42347,4.63098 c 0,0.67535 -0.27566,0.99236 -0.89588,0.99236 -0.59265,0 -0.89587,-0.31701 -0.89587,-0.99236 v -2.64628 c 0,-0.67535 0.30322,-0.99235 0.90965,-0.99235 0.60644,0 0.89588,0.317 0.89588,0.99235 v 0.44105 h 1.1164 v -0.44105 c 0,-1.39205 -0.60644,-2.0674 -2.01228,-2.0674 -1.40583,0 -2.0674,0.67535 -2.0674,2.0674 v 2.64628 c 0,1.40584 0.66157,2.06741 2.05362,2.06741 1.41962,0 2.02606,-0.68914 2.02606,-2.06741 v -0.46861 h -1.13018 z m 4.33612,0.23431 c -0.20674,0.52374 -0.52374,0.78561 -1.07505,0.78561 -0.50996,0 -0.78561,-0.22052 -0.78561,-0.70292 v -0.59265 c 0,-0.50996 0.13783,-0.77183 0.90966,-1.00614 0.50996,-0.15161 0.67535,-0.16539 0.951,-0.37213 z m 1.17153,1.7504 v -5.15473 c 0,-1.04748 -0.67535,-1.54366 -1.97092,-1.54366 -1.33692,0 -2.12254,0.53752 -2.12254,1.64014 v 0.56509 h 1.1164 v -0.42726 c 0,-0.49618 0.317,-0.74427 0.93722,-0.74427 0.57888,0 0.85453,0.22052 0.85453,0.67535 v 0.27566 c 0,0.44104 -0.64778,0.55131 -1.25422,0.73048 -1.29558,0.37213 -1.76419,0.77183 -1.76419,1.92958 v 0.66157 c 0,0.89587 0.41348,1.47475 1.44718,1.47475 0.86831,0 1.2818,-0.41348 1.57123,-0.92344 h 0.0551 l 0.0413,0.84074 z m 4.30856,-4.57586 v -0.33078 c 0,-1.10262 -0.67535,-1.79175 -2.03984,-1.79175 -1.28179,0 -1.99849,0.62022 -1.99849,1.52988 v 0.33078 c 0,0.45483 0.15161,0.84075 0.59265,1.17153 0.3997,0.30322 1.68149,0.96479 1.76419,1.00614 0.49618,0.27565 0.57887,0.49618 0.57887,0.77183 v 0.26187 c 0,0.49618 -0.27565,0.73049 -0.92344,0.73049 -0.68913,0 -0.951,-0.26188 -0.951,-0.78562 v -0.44104 h -1.13019 v 0.39969 c 0,1.17153 0.63401,1.80554 2.13632,1.80554 1.40584,0 2.03984,-0.56509 2.03984,-1.72284 v -0.30322 c 0,-0.67535 -0.26187,-1.01992 -0.7167,-1.32314 -0.53752,-0.35835 -1.15774,-0.53752 -1.77797,-0.92344 -0.39969,-0.24809 -0.48239,-0.38592 -0.48239,-0.66157 v -0.20674 c 0,-0.41348 0.317,-0.64779 0.90966,-0.64779 0.62022,0 0.88209,0.26187 0.88209,0.74427 v 0.38591 z"
         id="path3"
         inkscape:path-effect="#path-effect8"
         inkscape:original-d="m 131.77375,173.82849 v -1.13018 h -2.26036 v -8.02153 h -1.24044 v 9.15171 z m -0.12947,-6.61569 v 4.6172 c 0,1.3507 0.41349,2.08119 1.54367,2.08119 0.73048,0 1.15774,-0.28944 1.46096,-1.03371 h 0.0551 l 0.0276,0.95101 h 1.1164 v -6.61569 h -1.18531 v 4.57585 c -0.1654,0.7994 -0.37214,1.07505 -0.96479,1.07505 -0.59266,0 -0.85453,-0.27565 -0.85453,-1.01992 v -4.63098 z m 7.42347,4.63098 c 0,0.67535 -0.27566,0.99236 -0.89588,0.99236 -0.59265,0 -0.89587,-0.31701 -0.89587,-0.99236 v -2.64628 c 0,-0.67535 0.30322,-0.99235 0.90965,-0.99235 0.60644,0 0.89588,0.317 0.89588,0.99235 v 0.44105 h 1.1164 v -0.44105 c 0,-1.39205 -0.60644,-2.0674 -2.01228,-2.0674 -1.40583,0 -2.0674,0.67535 -2.0674,2.0674 v 2.64628 c 0,1.40584 0.66157,2.06741 2.05362,2.06741 1.41962,0 2.02606,-0.68914 2.02606,-2.06741 v -0.46861 h -1.13018 z m 4.33612,0.23431 c -0.20674,0.52374 -0.52374,0.78561 -1.07505,0.78561 -0.50996,0 -0.78561,-0.22052 -0.78561,-0.70292 v -0.59265 c 0,-0.50996 0.13783,-0.77183 0.90966,-1.00614 0.50996,-0.15161 0.67535,-0.16539 0.951,-0.37213 z m 1.17153,1.7504 v -5.15473 c 0,-1.04748 -0.67535,-1.54366 -1.97092,-1.54366 -1.33692,0 -2.12254,0.53752 -2.12254,1.64014 v 0.56509 h 1.1164 v -0.42726 c 0,-0.49618 0.317,-0.74427 0.93722,-0.74427 0.57888,0 0.85453,0.22052 0.85453,0.67535 v 0.27566 c 0,0.44104 -0.64778,0.55131 -1.25422,0.73048 -1.29558,0.37213 -1.76419,0.77183 -1.76419,1.92958 v 0.66157 c 0,0.89587 0.41348,1.47475 1.44718,1.47475 0.86831,0 1.2818,-0.41348 1.57123,-0.92344 h 0.0551 l 0.0413,0.84074 z m 4.30856,-4.57586 v -0.33078 c 0,-1.10262 -0.67535,-1.79175 -2.03984,-1.79175 -1.28179,0 -1.99849,0.62022 -1.99849,1.52988 v 0.33078 c 0,0.45483 0.15161,0.84075 0.59265,1.17153 0.3997,0.30322 1.68149,0.96479 1.76419,1.00614 0.49618,0.27565 0.57887,0.49618 0.57887,0.77183 v 0.26187 c 0,0.49618 -0.27565,0.73049 -0.92344,0.73049 -0.68913,0 -0.951,-0.26188 -0.951,-0.78562 v -0.44104 h -1.13019 v 0.39969 c 0,1.17153 0.63401,1.80554 2.13632,1.80554 1.40584,0 2.03984,-0.56509 2.03984,-1.72284 v -0.30322 c 0,-0.67535 -0.26187,-1.01992 -0.7167,-1.32314 -0.53752,-0.35835 -1.15774,-0.53752 -1.77797,-0.92344 -0.39969,-0.24809 -0.48239,-0.38592 -0.48239,-0.66157 v -0.20674 c 0,-0.41348 0.317,-0.64779 0.90966,-0.64779 0.62022,0 0.88209,0.26187 0.88209,0.74427 v 0.38591 z"
         transform="matrix(1.3617906,0,0,1.3617906,-52.902095,-62.919415)" />
    </g>
    <text
       xml:space="preserve"
       style="font-style:normal;font-variant:normal;font-weight:300;font-stretch:normal;font-size:44.5824px;line-height:0;font-family:Roboto, Helvetica, Arial, sans-serif;-inkscape-font-specification:'Roboto, Helvetica, Arial, sans-serif, Light';font-variant-ligatures:normal;font-variant-caps:normal;font-variant-numeric:normal;font-variant-east-asian:normal;text-align:center;text-anchor:middle;fill:#ffffff;stroke-width:1.7415"
       x="88.865227"
       y="31.831812"
       id="text6"><tspan
         sodipodi:role="line"
         id="tspan6"
         style="font-style:normal;font-variant:normal;font-weight:300;font-stretch:normal;font-size:44.5824px;font-family:Roboto, Helvetica, Arial, sans-serif;-inkscape-font-specification:'Roboto, Helvetica, Arial, sans-serif, Light';font-variant-ligatures:normal;font-variant-caps:normal;font-variant-numeric:normal;font-variant-east-asian:normal;fill:#ffffff;stroke-width:1.7415"
         x="88.865227"
         y="31.831812">B</tspan></text>
    <text
       xml:space="preserve"
       style="font-style:normal;font-variant:normal;font-weight:300;font-stretch:normal;font-size:44.5824px;line-height:0;font-family:Roboto, Helvetica, Arial, sans-serif;-inkscape-font-specification:'Roboto, Helvetica, Arial, sans-serif, Light';font-variant-ligatures:normal;font-variant-caps:normal;font-variant-numeric:normal;font-variant-east-asian:normal;text-align:center;text-anchor:middle;fill:#ffffff;stroke-width:1.25"
       x="4.5583787"
       y="31.831854"
       id="text7"><tspan
         sodipodi:role="line"
         id="tspan7"
         style="font-style:normal;font-variant:normal;font-weight:300;font-stretch:normal;font-size:44.5824px;font-family:Roboto, Helvetica, Arial, sans-serif;-inkscape-font-specification:'Roboto, Helvetica, Arial, sans-serif, Light';font-variant-ligatures:normal;font-variant-caps:normal;font-variant-numeric:normal;font-variant-east-asian:normal;fill:#ffffff;stroke-width:1.25"
         x="4.5583782"
         y="31.831854">L</tspan></text>
  </g>
</svg>
