<?xml version="1.0" encoding="UTF-8" standalone="no"?>
<!-- Created with Inkscape (http://www.inkscape.org/) -->

<svg
   width="1200"
   height="900"
   viewBox="0 0 317.50002 238.125"
   version="1.1"
   id="svg5"
   inkscape:version="1.2.2 (b0a8486541, 2022-12-01)"
   sodipodi:docname="screenshot.svg"
   inkscape:export-filename="screenshot.png"
   inkscape:export-xdpi="96"
   inkscape:export-ydpi="96"
   xmlns:inkscape="http://www.inkscape.org/namespaces/inkscape"
   xmlns:sodipodi="http://sodipodi.sourceforge.net/DTD/sodipodi-0.dtd"
   xmlns="http://www.w3.org/2000/svg"
   xmlns:svg="http://www.w3.org/2000/svg">
  <sodipodi:namedview
     id="namedview7"
     pagecolor="#ffffff"
     bordercolor="#666666"
     borderopacity="1.0"
     inkscape:showpageshadow="2"
     inkscape:pageopacity="0.0"
     inkscape:pagecheckerboard="0"
     inkscape:deskcolor="#d1d1d1"
     inkscape:document-units="mm"
     showgrid="false"
     inkscape:zoom="0.38128508"
     inkscape:cx="128.51277"
     inkscape:cy="111.46515"
     inkscape:window-width="1920"
     inkscape:window-height="1013"
     inkscape:window-x="0"
     inkscape:window-y="0"
     inkscape:window-maximized="1"
     inkscape:current-layer="layer1" />
  <defs
     id="defs2" />
  <g
     inkscape:label="Capa 1"
     inkscape:groupmode="layer"
     id="layer1"
     transform="translate(-120.79895,-158.48458)">
    <g
       id="g347"
       transform="translate(0,4.6680213)">
      <path
         fill-rule="evenodd"
         clip-rule="evenodd"
         d="m 279.55022,252.66371 c -17.64055,0 -28.66299,8.76712 -33.07507,26.30137 6.61556,-8.76712 14.33277,-12.05413 23.15182,-9.86368 5.03158,1.2495 8.62966,4.87874 12.60887,8.89675 6.48594,6.54296 13.99319,14.11506 30.38689,14.11506 17.6379,0 28.66289,-8.76712 33.07242,-26.29882 -6.61291,8.76712 -14.33022,12.05413 -23.14918,9.86113 -5.03422,-1.24949 -8.6323,-4.87874 -12.61151,-8.8942 -6.48585,-6.54815 -13.99054,-14.11761 -30.38424,-14.11761 z m -33.07507,39.4495 c -17.63789,0 -28.66299,8.76712 -33.07241,26.30137 6.61556,-8.76712 14.33277,-12.05413 23.14917,-9.86368 5.03423,1.2495 8.63231,4.87874 12.61152,8.89675 6.48585,6.54296 13.99054,14.11506 30.38679,14.11506 17.638,0 28.66299,-8.76457 33.07252,-26.29882 -6.61556,8.76712 -14.33287,12.05414 -23.15182,9.86368 -5.03157,-1.25204 -8.62975,-4.88128 -12.60888,-8.89675 -6.48593,-6.54296 -13.99317,-14.11761 -30.38689,-14.11761 z"
         fill="#38bdf8"
         id="path132"
         style="stroke-width:2.59228" />
      <text
         xml:space="preserve"
         style="font-size:25.4px;line-height:0;font-family:sans-serif;stroke-width:0.264583"
         x="173.85617"
         y="233.24541"
         id="text342"><tspan
           sodipodi:role="line"
           id="tspan340"
           style="font-style:normal;font-variant:normal;font-weight:normal;font-stretch:normal;font-size:25.4px;font-family:Roboto;-inkscape-font-specification:Roboto;stroke-width:0.264583"
           x="173.85617"
           y="233.24541">lucasbonomo.com</tspan></text>
    </g>
  </g>
</svg>
